<svg xmlns="http://www.w3.org/2000/svg" width="240" height="304">
    <style>line, path, circle,rect,polygon {
                          stroke: black;
                          stroke-width: 2;
                          stroke-opacity: 1;
                          fill-opacity: 1;
                          stroke-linecap: round;
                          stroke-linejoin: miter;
                        }

                    text {
                        /* This fix the spacing bug in svg text*/
                        white-space: pre;
                        fill: black;
                        }
                        rect.backdrop{
                            stroke: none;
                            fill: white;
                        }
                        .broken{
                            stroke-dasharray: 8;
                        }
                        .filled{
                            fill: black;
                        }
                        .bg_filled{
                            fill: white;
                        }
                        .nofill{
                            fill: white;
                        }

                        text {
                         font-family: monospace;
                         font-size: 14px;
                        }

                        .end_marked_arrow{
                            marker-end: url(#arrow);
                         }
                        .start_marked_arrow{
                            marker-start: url(#arrow);
                         }

                        .end_marked_diamond{
                            marker-end: url(#diamond);
                         }
                        .start_marked_diamond{
                            marker-start: url(#diamond);
                         }

                        .end_marked_circle{
                            marker-end: url(#circle);
                         }
                        .start_marked_circle{
                            marker-start: url(#circle);
                         }

                        .end_marked_open_circle{
                            marker-end: url(#open_circle);
                         }
                        .start_marked_open_circle{
                            marker-start: url(#open_circle);
                         }

                        .end_marked_big_open_circle{
                            marker-end: url(#big_open_circle);
                         }
                        .start_marked_big_open_circle{
                            marker-start: url(#big_open_circle);
                         }

                         
                        </style>
    <defs>
        <marker id="arrow" viewBox="-2 -2 8 8" refX="4" refY="2" markerWidth="7" markerHeight="7" orient="auto-start-reverse">
            <polygon points="0,0 0,4 4,2 0,0"></polygon>
        </marker>
        <marker id="diamond" viewBox="-2 -2 8 8" refX="4" refY="2" markerWidth="7" markerHeight="7" orient="auto-start-reverse">
            <polygon points="0,2 2,0 4,2 2,4 0,2"></polygon>
        </marker>
        <marker id="circle" viewBox="0 0 8 8" refX="4" refY="4" markerWidth="7" markerHeight="7" orient="auto-start-reverse">
            <circle cx="4" cy="4" r="2" class="filled"></circle>
        </marker>
        <marker id="open_circle" viewBox="0 0 8 8" refX="4" refY="4" markerWidth="7" markerHeight="7" orient="auto-start-reverse">
            <circle cx="4" cy="4" r="2" class="bg_filled"></circle>
        </marker>
        <marker id="big_open_circle" viewBox="0 0 8 8" refX="4" refY="4" markerWidth="7" markerHeight="7" orient="auto-start-reverse">
            <circle cx="4" cy="4" r="3" class="bg_filled"></circle>
        </marker>
    </defs>
    <rect x="4" y="8" width="32" height="32" class="solid nofill" rx="4"></rect>
    <text x="10" y="28" >i0</text>
    <rect x="68" y="8" width="32" height="32" class="broken nofill" rx="4"></rect>
    <text x="74" y="28" >i1</text>
    <rect x="132" y="8" width="32" height="32" class="solid nofill" rx="4"></rect>
    <text x="138" y="28" >i2</text>
    <rect x="196" y="8" width="32" height="32" class="solid nofill" rx="4"></rect>
    <text x="202" y="28" >i3</text>
    <rect x="68" y="72" width="24" height="32" class="broken nofill" rx="4"></rect>
    <text x="74" y="92" >0</text>
    <rect x="68" y="120" width="24" height="32" class="broken nofill" rx="4"></rect>
    <text x="74" y="140" >1</text>
    <rect x="68" y="216" width="24" height="32" class="broken nofill" rx="4"></rect>
    <text x="74" y="236" >1</text>
    <text x="42" y="28" >p0</text>
    <text x="106" y="28" >p1</text>
    <text x="170" y="28" >p2</text>
    <line x1="0" y1="54" x2="232" y2="54" class="solid"></line>
    <line x1="0" y1="58" x2="232" y2="58" class="solid"></line>
    <text x="50" y="76" >0</text>
    <text x="114" y="76" >0</text>
    <text x="178" y="76" >0</text>
    <text x="10" y="92" >0</text>
    <text x="138" y="92" >0</text>
    <text x="202" y="92" >1</text>
    <text x="50" y="108" >1</text>
    <text x="114" y="108" >1</text>
    <text x="202" y="108" >2</text>
    <text x="178" y="124" >2</text>
    <text x="10" y="140" >0</text>
    <text x="138" y="140" >0</text>
    <text x="202" y="140" >0</text>
    <text x="50" y="156" >2</text>
    <text x="202" y="156" >2</text>
    <text x="178" y="172" >4</text>
    <text x="10" y="188" >1</text>
    <text x="74" y="188" >0</text>
    <text x="138" y="188" >1</text>
    <text x="202" y="188" >0</text>
    <text x="50" y="204" >3</text>
    <text x="114" y="204" >3</text>
    <text x="178" y="204" >5</text>
    <text x="114" y="220" >3</text>
    <text x="10" y="236" >1</text>
    <text x="138" y="236" >1</text>
    <text x="202" y="236" >0</text>
    <text x="50" y="252" >4</text>
    <text x="114" y="252" >4</text>
    <text x="202" y="252" >1</text>
    <text x="202" y="268" >2</text>
    <text x="178" y="284" >8</text>
    <g>
        <path d="M 8,72 A 4,4 0,0,0 4,76" class="nofill"></path>
        <line x1="4" y1="76" x2="4" y2="100" class="solid"></line>
        <line x1="8" y1="72" x2="24" y2="72" class="solid"></line>
        <path d="M 24,72 A 4,4 0,0,1 28,76" class="nofill"></path>
        <line x1="28" y1="76" x2="28" y2="100" class="solid"></line>
        <line x1="28" y1="88" x2="64" y2="88" class="broken"></line>
        <path d="M 4,100 A 4,4 0,0,0 8,104" class="nofill"></path>
        <line x1="8" y1="104" x2="24" y2="104" class="solid"></line>
        <path d="M 28,100 A 4,4 0,0,1 24,104" class="nofill"></path>
    </g>
    <g>
        <path d="M 136,72 A 4,4 0,0,0 132,76" class="nofill"></path>
        <line x1="132" y1="76" x2="132" y2="100" class="solid"></line>
        <line x1="136" y1="72" x2="152" y2="72" class="solid"></line>
        <path d="M 152,72 A 4,4 0,0,1 156,76" class="nofill"></path>
        <line x1="156" y1="76" x2="156" y2="100" class="solid"></line>
        <line x1="96" y1="88" x2="132" y2="88" class="solid"></line>
        <path d="M 132,100 A 4,4 0,0,0 136,104" class="nofill"></path>
        <line x1="136" y1="104" x2="152" y2="104" class="solid"></line>
        <path d="M 156,100 A 4,4 0,0,1 152,104" class="nofill"></path>
        <path d="M 200,72 A 4,4 0,0,0 196,76" class="nofill"></path>
        <line x1="196" y1="76" x2="196" y2="196" class="solid"></line>
        <line x1="200" y1="72" x2="216" y2="72" class="solid"></line>
        <path d="M 216,72 A 4,4 0,0,1 220,76" class="nofill"></path>
        <line x1="220" y1="76" x2="220" y2="196" class="solid"></line>
        <line x1="156" y1="88" x2="196" y2="88" class="solid"></line>
        <line x1="172" y1="88" x2="172" y2="100" class="solid"></line>
        <path d="M 172,100 A 4,4 0,0,0 176,104" class="nofill"></path>
        <line x1="176" y1="104" x2="196" y2="104" class="solid"></line>
        <line x1="196" y1="120" x2="220" y2="120" class="solid"></line>
        <line x1="196" y1="168" x2="220" y2="168" class="solid"></line>
        <path d="M 196,196 A 4,4 0,0,0 200,200" class="nofill"></path>
        <line x1="200" y1="200" x2="216" y2="200" class="solid"></line>
        <path d="M 220,196 A 4,4 0,0,1 216,200" class="nofill"></path>
        <path d="M 136,120 A 4,4 0,0,0 132,124" class="nofill"></path>
        <line x1="132" y1="124" x2="132" y2="148" class="solid"></line>
        <line x1="136" y1="120" x2="152" y2="120" class="solid"></line>
        <path d="M 152,120 A 4,4 0,0,1 156,124" class="nofill"></path>
        <line x1="156" y1="124" x2="156" y2="148" class="solid"></line>
        <line x1="96" y1="136" x2="132" y2="136" class="solid"></line>
        <line x1="108" y1="136" x2="108" y2="180" class="solid"></line>
        <line x1="156" y1="136" x2="196" y2="136" class="solid"></line>
        <line x1="172" y1="136" x2="172" y2="148" class="solid"></line>
        <path d="M 132,148 A 4,4 0,0,0 136,152" class="nofill"></path>
        <line x1="136" y1="152" x2="152" y2="152" class="solid"></line>
        <path d="M 156,148 A 4,4 0,0,1 152,152" class="nofill"></path>
        <path d="M 172,148 A 4,4 0,0,0 176,152" class="nofill"></path>
        <line x1="176" y1="152" x2="196" y2="152" class="solid"></line>
        <path d="M 108,180 A 4,4 0,0,0 112,184" class="nofill"></path>
        <path d="M 136,168 A 4,4 0,0,0 132,172" class="nofill"></path>
        <line x1="132" y1="172" x2="132" y2="196" class="solid"></line>
        <line x1="136" y1="168" x2="152" y2="168" class="solid"></line>
        <path d="M 152,168 A 4,4 0,0,1 156,172" class="nofill"></path>
        <line x1="156" y1="172" x2="156" y2="196" class="solid"></line>
        <line x1="112" y1="184" x2="132" y2="184" class="solid"></line>
        <line x1="156" y1="184" x2="196" y2="184" class="solid"></line>
        <path d="M 132,196 A 4,4 0,0,0 136,200" class="nofill"></path>
        <line x1="136" y1="200" x2="152" y2="200" class="solid"></line>
        <path d="M 156,196 A 4,4 0,0,1 152,200" class="nofill"></path>
    </g>
    <g>
        <path d="M 8,120 A 4,4 0,0,0 4,124" class="nofill"></path>
        <line x1="4" y1="124" x2="4" y2="148" class="solid"></line>
        <line x1="8" y1="120" x2="24" y2="120" class="solid"></line>
        <path d="M 24,120 A 4,4 0,0,1 28,124" class="nofill"></path>
        <line x1="28" y1="124" x2="28" y2="148" class="solid"></line>
        <line x1="28" y1="136" x2="64" y2="136" class="broken"></line>
        <path d="M 4,148 A 4,4 0,0,0 8,152" class="nofill"></path>
        <line x1="8" y1="152" x2="24" y2="152" class="solid"></line>
        <path d="M 28,148 A 4,4 0,0,1 24,152" class="nofill"></path>
    </g>
    <g>
        <path d="M 8,168 A 4,4 0,0,0 4,172" class="nofill"></path>
        <line x1="4" y1="172" x2="4" y2="196" class="solid"></line>
        <line x1="8" y1="168" x2="24" y2="168" class="solid"></line>
        <path d="M 24,168 A 4,4 0,0,1 28,172" class="nofill"></path>
        <line x1="28" y1="172" x2="28" y2="196" class="solid"></line>
        <line x1="28" y1="184" x2="64" y2="184" class="broken"></line>
        <path d="M 4,196 A 4,4 0,0,0 8,200" class="nofill"></path>
        <line x1="8" y1="200" x2="24" y2="200" class="solid"></line>
        <path d="M 28,196 A 4,4 0,0,1 24,200" class="nofill"></path>
    </g>
    <g>
        <path d="M 72,168 A 4,4 0,0,0 68,172" class="nofill"></path>
        <line x1="68" y1="172" x2="68" y2="196" class="broken"></line>
        <line x1="72" y1="168" x2="88" y2="168" class="broken"></line>
        <path d="M 88,168 A 4,4 0,0,1 92,172" class="nofill"></path>
        <path d="M 88,168 A 8,8 0,0,1 94,172" class="nofill"></path>
        <line x1="92" y1="172" x2="92" y2="196" class="broken"></line>
        <line x1="94" y1="172" x2="96" y2="176" class="solid"></line>
        <path d="M 96,176 A 16,16 0,0,1 96,192" class="nofill"></path>
        <path d="M 68,196 A 4,4 0,0,0 72,200" class="nofill"></path>
        <line x1="72" y1="200" x2="88" y2="200" class="broken"></line>
        <line x1="96" y1="192" x2="94" y2="196" class="solid"></line>
        <path d="M 92,196 A 4,4 0,0,1 88,200" class="nofill"></path>
        <path d="M 94,196 A 8,8 0,0,1 88,200" class="nofill"></path>
    </g>
    <g>
        <path d="M 8,216 A 4,4 0,0,0 4,220" class="nofill"></path>
        <line x1="4" y1="220" x2="4" y2="244" class="solid"></line>
        <line x1="8" y1="216" x2="24" y2="216" class="solid"></line>
        <path d="M 24,216 A 4,4 0,0,1 28,220" class="nofill"></path>
        <line x1="28" y1="220" x2="28" y2="244" class="solid"></line>
        <line x1="28" y1="232" x2="64" y2="232" class="broken"></line>
        <path d="M 4,244 A 4,4 0,0,0 8,248" class="nofill"></path>
        <line x1="8" y1="248" x2="24" y2="248" class="solid"></line>
        <path d="M 28,244 A 4,4 0,0,1 24,248" class="nofill"></path>
    </g>
    <g>
        <path d="M 136,216 A 4,4 0,0,0 132,220" class="nofill"></path>
        <line x1="132" y1="220" x2="132" y2="244" class="solid"></line>
        <line x1="136" y1="216" x2="152" y2="216" class="solid"></line>
        <path d="M 152,216 A 4,4 0,0,1 156,220" class="nofill"></path>
        <line x1="156" y1="220" x2="156" y2="244" class="solid"></line>
        <line x1="96" y1="232" x2="132" y2="232" class="solid"></line>
        <path d="M 132,244 A 4,4 0,0,0 136,248" class="nofill"></path>
        <line x1="136" y1="248" x2="152" y2="248" class="solid"></line>
        <path d="M 156,244 A 4,4 0,0,1 152,248" class="nofill"></path>
        <path d="M 200,216 A 4,4 0,0,0 196,220" class="nofill"></path>
        <line x1="196" y1="220" x2="196" y2="276" class="solid"></line>
        <line x1="200" y1="216" x2="216" y2="216" class="solid"></line>
        <path d="M 216,216 A 4,4 0,0,1 220,220" class="nofill"></path>
        <line x1="220" y1="220" x2="220" y2="276" class="solid"></line>
        <line x1="156" y1="232" x2="196" y2="232" class="solid"></line>
        <line x1="172" y1="232" x2="172" y2="260" class="solid"></line>
        <line x1="172" y1="248" x2="196" y2="248" class="solid"></line>
        <path d="M 172,260 A 4,4 0,0,0 176,264" class="nofill"></path>
        <line x1="176" y1="264" x2="196" y2="264" class="solid"></line>
        <path d="M 196,276 A 4,4 0,0,0 200,280" class="nofill"></path>
        <line x1="200" y1="280" x2="216" y2="280" class="solid"></line>
        <path d="M 220,276 A 4,4 0,0,1 216,280" class="nofill"></path>
    </g>
</svg>
